<svg width="28" height="27" viewBox="0 0 28 27" fill="none" xmlns="http://www.w3.org/2000/svg">
<path d="M13.0448 2.60898C13.3522 1.98639 13.5058 1.6751 13.7144 1.57564C13.8959 1.48911 14.1068 1.48911 14.2882 1.57564C14.4968 1.6751 14.6505 1.98639 14.9578 2.60898L17.8734 8.5156C17.9641 8.6994 18.0095 8.7913 18.0758 8.86266C18.1345 8.92583 18.2049 8.97702 18.2831 9.01339C18.3714 9.05445 18.4728 9.06928 18.6756 9.09892L25.1973 10.0522C25.8841 10.1525 26.2274 10.2027 26.3863 10.3705C26.5246 10.5164 26.5896 10.717 26.5633 10.9163C26.5331 11.1453 26.2845 11.3875 25.7873 11.8717L21.0699 16.4664C20.9228 16.6097 20.8493 16.6813 20.8019 16.7665C20.7599 16.842 20.7329 16.9248 20.7225 17.0106C20.7108 17.1074 20.7281 17.2085 20.7628 17.4109L21.8759 23.9007C21.9933 24.5852 22.052 24.9275 21.9417 25.1306C21.8457 25.3073 21.6751 25.4312 21.4774 25.4679C21.2501 25.51 20.9428 25.3484 20.3281 25.0251L14.4978 21.959C14.3161 21.8635 14.2253 21.8157 14.1296 21.7969C14.0449 21.7803 13.9578 21.7803 13.873 21.7969C13.7773 21.8157 13.6865 21.8635 13.5048 21.959L7.67453 25.0251C7.05986 25.3484 6.75252 25.51 6.52526 25.4679C6.32754 25.4312 6.15693 25.3073 6.06095 25.1306C5.95064 24.9275 6.00934 24.5852 6.12673 23.9007L7.23982 17.4109C7.27452 17.2085 7.29187 17.1074 7.28013 17.0106C7.26973 16.9248 7.24278 16.842 7.20078 16.7665C7.15333 16.6813 7.0798 16.6097 6.93275 16.4664L2.21538 11.8717C1.71819 11.3875 1.46959 11.1453 1.43934 10.9163C1.41302 10.717 1.47804 10.5164 1.6163 10.3705C1.77522 10.2027 2.1186 10.1525 2.80536 10.0522L9.32705 9.09892C9.52987 9.06928 9.63128 9.05445 9.71959 9.01339C9.79779 8.97702 9.86819 8.92583 9.92688 8.86266C9.99318 8.7913 10.0385 8.6994 10.1293 8.5156L13.0448 2.60898Z" fill="#FDC921" stroke="#FDC921" stroke-width="2.66667" stroke-linecap="round" stroke-linejoin="round"/>
</svg>
